<svg xmlns="http://www.w3.org/2000/svg" width="200" height="50" viewBox="0 0 200 50"><rect width="100%" height="100%" fill="#DDDDDD"/><path fill="#999999" d="M71.155 14.12v2.76h-5.45v15.31h-3.36V16.88h-5.45v-2.76zm4.61 6.02.19 1.45q.6-1.15 1.42-1.81.83-.65 1.95-.65.89 0 1.43.38l-.2 2.32q-.06.22-.18.32-.12.09-.32.09-.19 0-.56-.06-.37-.07-.72-.07-.51 0-.91.15t-.72.44q-.32.28-.56.68t-.46.91v7.9h-3.08V19.36h1.81q.47 0 .66.17t.25.61m13.38 8.74v-2.17q-1.34.07-2.25.24-.92.16-1.47.43-.55.26-.78.61-.24.35-.24.76 0 .81.48 1.17.48.34 1.26.34.95 0 1.64-.34t1.36-1.04m-6.53-6.74-.55-.99q2.21-2.02 5.33-2.02 1.12 0 2.01.37.89.36 1.5 1.02t.93 1.57.32 2v8.1h-1.4q-.44 0-.68-.13-.23-.13-.37-.53l-.28-.93q-.48.44-.95.77-.46.33-.96.56-.5.22-1.07.34t-1.25.12q-.82 0-1.5-.22-.69-.22-1.19-.66-.5-.43-.78-1.08-.27-.65-.27-1.52 0-.48.16-.96.16-.49.53-.92.37-.44.96-.83t1.44-.67q.86-.29 2-.47 1.13-.18 2.6-.22v-.75q0-1.29-.55-1.91t-1.59-.62q-.75 0-1.25.18-.49.17-.86.39l-.69.4q-.3.17-.68.17-.32 0-.55-.17-.22-.17-.36-.39m22.44-1.19-.81 1.13q-.14.17-.27.27t-.38.1q-.24 0-.47-.14-.22-.15-.53-.33-.32-.18-.75-.32-.43-.15-1.07-.15-.81 0-1.42.3-.61.29-1.02.84t-.61 1.33-.2 1.77q0 1.03.22 1.83t.63 1.34q.42.54 1 .83.59.28 1.33.28t1.19-.18q.46-.19.77-.4.31-.22.54-.4.24-.19.52-.19.38 0 .57.29l.88 1.13q-.51.6-1.11 1-.6.41-1.24.65-.65.25-1.33.35t-1.35.1q-1.19 0-2.24-.45-1.05-.44-1.84-1.29t-1.24-2.08q-.46-1.23-.46-2.81 0-1.41.41-2.62.4-1.2 1.19-2.08.79-.89 1.95-1.39t2.68-.5q1.43 0 2.51.47 1.09.46 1.95 1.32m2.05-7.33h3.09v10.63h.57q.31 0 .49-.08.19-.08.37-.33l3.19-3.94q.2-.26.44-.4.25-.14.64-.14h2.82l-3.99 4.77q-.42.56-.92.86.26.19.47.44.2.25.39.53l4.28 6.23h-2.79q-.36 0-.63-.12-.26-.12-.43-.43l-3.28-4.86q-.17-.29-.36-.38t-.56-.09h-.7v5.88h-3.09zm21.89 7.13-.7 1.11q-.13.2-.27.29-.13.08-.35.08t-.48-.13q-.25-.12-.59-.28t-.77-.28q-.43-.13-1.02-.13-.91 0-1.43.39t-.52 1.01q0 .42.27.7t.71.49q.45.21 1.01.38t1.14.37 1.15.46q.56.25 1 .65.45.39.71.94.27.55.27 1.33 0 .92-.33 1.7t-.98 1.35-1.61.89q-.95.32-2.2.32-.66 0-1.3-.12-.63-.12-1.21-.33t-1.07-.5q-.5-.29-.87-.63l.71-1.17q.14-.21.33-.33.18-.11.47-.11t.54.16q.26.17.6.35.34.19.79.35.46.17 1.16.17.55 0 .94-.13.4-.14.65-.35.26-.21.38-.49t.12-.58q0-.45-.27-.74t-.72-.5q-.44-.21-1.01-.38t-1.16-.37-1.16-.47-1.02-.68q-.44-.41-.71-1.01t-.27-1.45q0-.79.32-1.5.31-.72.91-1.25.61-.53 1.52-.85.9-.32 2.09-.32 1.33 0 2.41.44 1.09.44 1.82 1.15m11.63-1.39h2.48l-6.99 16.36q-.14.32-.36.49-.21.17-.66.17h-2.3l2.4-5.15-5.19-11.87h2.71q.36 0 .57.18.21.17.31.4l2.72 6.65q.14.34.23.67.1.34.18.69.12-.35.23-.69.11-.35.25-.68l2.57-6.64q.1-.25.33-.41.24-.17.52-.17"/></svg>